<?xml version="1.0" encoding="UTF-8" standalone="no"?>
<!-- Created with Inkscape (http://www.inkscape.org/) -->

<svg
   xmlns:dc="http://purl.org/dc/elements/1.1/"
   xmlns:cc="http://creativecommons.org/ns#"
   xmlns:rdf="http://www.w3.org/1999/02/22-rdf-syntax-ns#"
   xmlns:svg="http://www.w3.org/2000/svg"
   xmlns="http://www.w3.org/2000/svg"
   xmlns:sodipodi="http://sodipodi.sourceforge.net/DTD/sodipodi-0.dtd"
   xmlns:inkscape="http://www.inkscape.org/namespaces/inkscape"
   width="40.291809mm"
   height="40.291454mm"
   viewBox="0 0 40.291809 40.291454"
   version="1.1"
   id="svg481"
   inkscape:version="0.92.3 (2405546, 2018-03-11)"
   sodipodi:docname="FB-rond.svg">
  <defs
     id="defs475" />
  <sodipodi:namedview
     id="base"
     pagecolor="#ffffff"
     bordercolor="#666666"
     borderopacity="1.0"
     inkscape:pageopacity="0.0"
     inkscape:pageshadow="2"
     inkscape:zoom="0.35"
     inkscape:cx="150.42771"
     inkscape:cy="261.8556"
     inkscape:document-units="mm"
     inkscape:current-layer="layer1"
     showgrid="false"
     fit-margin-top="0"
     fit-margin-left="0"
     fit-margin-right="0"
     fit-margin-bottom="0"
     inkscape:window-width="1366"
     inkscape:window-height="713"
     inkscape:window-x="0"
     inkscape:window-y="256"
     inkscape:window-maximized="1" />
  <metadata
     id="metadata478">
    <rdf:RDF>
      <cc:Work
         rdf:about="">
        <dc:format>image/svg+xml</dc:format>
        <dc:type
           rdf:resource="http://purl.org/dc/dcmitype/StillImage" />
        <dc:title></dc:title>
      </cc:Work>
    </rdf:RDF>
  </metadata>
  <g
     inkscape:label="Calque 1"
     inkscape:groupmode="layer"
     id="layer1"
     transform="translate(-66.032667,-177.82451)">
    <g
       id="g387"
       transform="matrix(0.35277777,0,0,-0.35277777,-150.19527,380.77904)">
      <g
         transform="translate(727.1426,518.1982)"
         id="g50">
        <path
           inkscape:connector-curvature="0"
           id="path52"
           style="fill:#0b94cc;fill-opacity:1;fill-rule:nonzero;stroke:none"
           d="m 0,0 c 0,-31.539 -25.567,-57.106 -57.106,-57.106 -31.54,0 -57.107,25.567 -57.107,57.106 0,31.539 25.567,57.106 57.107,57.106 C -25.567,57.106 0,31.539 0,0" />
      </g>
      <g
         transform="translate(661.1396,488.2251)"
         id="g54">
        <path
           inkscape:connector-curvature="0"
           id="path56"
           style="fill:#ffffff;fill-opacity:1;fill-rule:nonzero;stroke:none"
           d="m 0,0 v 31.345 h -5.321 v 9.312 H 0 v 1.58 c 0,4.905 1.497,10.309 5.155,13.636 3.16,2.992 7.567,4.074 11.225,4.074 2.828,0 4.989,-0.333 6.734,-0.832 l -0.499,-9.727 c -1.08,0.332 -2.411,0.581 -4.074,0.581 -4.156,0 -5.901,-3.242 -5.901,-7.234 v -2.078 h 8.146 V 31.345 H 12.722 V 0 Z" />
      </g>
    </g>
  </g>
</svg>
