<?xml version="1.0" encoding="UTF-8" standalone="no"?>
<!-- Created with Inkscape (http://www.inkscape.org/) -->

<svg
   xmlns:dc="http://purl.org/dc/elements/1.1/"
   xmlns:cc="http://creativecommons.org/ns#"
   xmlns:rdf="http://www.w3.org/1999/02/22-rdf-syntax-ns#"
   xmlns:svg="http://www.w3.org/2000/svg"
   xmlns="http://www.w3.org/2000/svg"
   xmlns:sodipodi="http://sodipodi.sourceforge.net/DTD/sodipodi-0.dtd"
   xmlns:inkscape="http://www.inkscape.org/namespaces/inkscape"
   width="40.291809mm"
   height="40.291809mm"
   viewBox="0 0 40.291809 40.291809"
   version="1.1"
   id="svg1711"
   inkscape:version="0.92.3 (2405546, 2018-03-11)"
   sodipodi:docname="Twittersvg.svg">
  <defs
     id="defs1705" />
  <sodipodi:namedview
     id="base"
     pagecolor="#ffffff"
     bordercolor="#666666"
     borderopacity="1.0"
     inkscape:pageopacity="0.0"
     inkscape:pageshadow="2"
     inkscape:zoom="0.35"
     inkscape:cx="-295.28657"
     inkscape:cy="416.142"
     inkscape:document-units="mm"
     inkscape:current-layer="layer1"
     showgrid="false"
     fit-margin-top="0"
     fit-margin-left="0"
     fit-margin-right="0"
     fit-margin-bottom="0"
     inkscape:window-width="1366"
     inkscape:window-height="713"
     inkscape:window-x="0"
     inkscape:window-y="256"
     inkscape:window-maximized="1" />
  <metadata
     id="metadata1708">
    <rdf:RDF>
      <cc:Work
         rdf:about="">
        <dc:format>image/svg+xml</dc:format>
        <dc:type
           rdf:resource="http://purl.org/dc/dcmitype/StillImage" />
        <dc:title></dc:title>
      </cc:Work>
    </rdf:RDF>
  </metadata>
  <g
     inkscape:label="Calque 1"
     inkscape:groupmode="layer"
     id="layer1"
     transform="translate(-183.96124,-218.64576)">
    <g
       id="g421"
       transform="matrix(0.35277777,0,0,-0.35277777,30.667974,364.15093)">
      <g
         id="g414">
        <g
           id="g66"
           transform="translate(548.7451,355.3496)">
          <path
             d="m 0,0 c 0,-31.539 -25.567,-57.107 -57.106,-57.107 -31.54,0 -57.107,25.568 -57.107,57.107 0,31.538 25.567,57.106 57.107,57.106 C -25.567,57.106 0,31.538 0,0"
             style="fill:#5cc8e8;fill-opacity:1;fill-rule:nonzero;stroke:none"
             id="path68"
             inkscape:connector-curvature="0" />
        </g>
        <g
           id="g70"
           transform="translate(524.7246,377.582)">
          <path
             d="m 0,0 c -2.461,-1.092 -4.375,-1.521 -7.151,-1.852 2.834,1.7 5.009,4.387 6.037,7.594 -2.653,-1.574 -5.591,-2.715 -8.717,-3.33 -2.504,2.667 -6.071,4.334 -10.022,4.334 -7.579,0 -13.726,-6.146 -13.726,-13.726 0,-1.077 0.121,-2.124 0.357,-3.129 -11.408,0.572 -21.522,6.037 -28.293,14.343 -1.181,-2.027 -1.859,-4.386 -1.859,-6.902 0,-4.76 2.425,-8.963 6.106,-11.426 -2.249,0.073 -4.367,0.69 -6.216,1.719 -0.002,-0.057 -0.002,-0.117 -0.002,-0.174 0,-6.65 4.734,-12.197 11.012,-13.457 -1.151,-0.316 -2.365,-0.484 -3.616,-0.484 -0.887,0 -1.745,0.086 -2.583,0.246 1.747,-5.451 6.815,-9.42 12.822,-9.531 -4.698,-3.684 -10.616,-5.877 -17.048,-5.877 -1.107,0 -2.202,0.064 -3.273,0.191 0,0 5.059,-6.994 22.733,-9.443 17.672,-2.45 48.087,9.484 37.323,44.107 C -3.433,-4.861 -1.84,-2.754 0,0"
             style="fill:#ffffff;fill-opacity:1;fill-rule:nonzero;stroke:none"
             id="path72"
             inkscape:connector-curvature="0" />
        </g>
      </g>
    </g>
  </g>
</svg>
